<svg width="24" height="24" viewBox="0 0 24 24" fill="none" xmlns="http://www.w3.org/2000/svg">
<circle cx="12" cy="12" r="11" fill="white"/>
<path d="M14.9996 6.87887L17.2145 4.66401C16.5394 4.18328 15.7952 3.7934 14.9996 3.51221V6.87887Z" fill="#2D50E6"/>
<path d="M8.9996 6.87912V3.51221C8.20397 3.79342 7.45969 4.18334 6.7846 4.66411L8.9996 6.87912Z" fill="#2D50E6"/>
<path d="M6.87793 9.00009L3.51172 9.00009C3.79288 8.20462 4.18269 7.46047 4.66334 6.78549L6.87793 9.00009Z" fill="#2D50E6"/>
<path d="M3.51172 15.0001C3.79291 15.7957 4.1828 16.5399 4.66352 17.215L6.87839 15.0001H3.51172Z" fill="#2D50E6"/>
<path d="M8.9996 17.1215V20.488C8.20407 20.2068 7.45988 19.8169 6.78486 19.3363L8.9996 17.1215Z" fill="#2D50E6"/>
<path d="M14.9996 20.488C15.7951 20.2068 16.5392 19.817 17.2142 19.3364L14.9996 17.1218V20.488Z" fill="#2D50E6"/>
<path d="M17.1206 15.0001H20.4875C20.2063 15.7957 19.8164 16.54 19.3356 17.2151L17.1206 15.0001Z" fill="#2D50E6"/>
<path d="M20.4875 9.00009C20.2063 8.20456 19.8165 7.46037 19.3358 6.78535L17.121 9.00009H20.4875Z" fill="#2D50E6"/>
<path d="M12 3C12.6874 3 13.3568 3.07706 14 3.22302V10H20.777C20.9229 10.6432 21 11.3126 21 12C21 12.6874 20.9229 13.3568 20.777 14H14V20.777C13.3568 20.9229 12.6874 21 12 21C11.3126 21 10.6432 20.9229 10 20.777V14H3.22302C3.07706 13.3568 3 12.6874 3 12C3 11.3126 3.07706 10.6432 3.22302 10L10 10V3.22302C10.6432 3.07706 11.3126 3 12 3Z" fill="#D95762"/>
<path d="M18.4667 5.74047C18.2346 5.50073 17.9892 5.27386 17.7319 5.06104L15 7.79297V9H15.2071L18.4667 5.74047Z" fill="#D95762"/>
<path d="M5.74034 5.53337C5.50061 5.76547 5.27374 6.01079 5.06091 6.26815L7.79277 9H8.99995V8.79297L5.74034 5.53337Z" fill="#D95762"/>
<path d="M18.2595 18.4667C18.4992 18.2346 18.7261 17.9893 18.9389 17.7319L16.207 15H15V15.2072L18.2595 18.4667Z" fill="#D95762"/>
<path d="M8.99995 16.2072L6.2681 18.939C6.01074 18.7262 5.76542 18.4994 5.53331 18.2596L8.79292 15H8.99995V16.2072Z" fill="#D95762"/>
</svg>
